<svg xmlns="http://www.w3.org/2000/svg" width="211.937" height="298.063" viewBox="0 0 211.937 298.063">
  <defs>
    <style>
      .cls-1 {
        fill: #1b3341;
      }

      .cls-1, .cls-2, .cls-3, .cls-4, .cls-5 {
        fill-rule: evenodd;
      }

      .cls-2 {
        fill: #111;
      }

      .cls-3 {
        fill: #f26522;
      }

      .cls-4 {
        fill: #ff3c00;
      }

      .cls-5 {
        fill: #ffa100;
      }
    </style>
  </defs>
  <path class="cls-1" d="M128.672,311.88c11.358,2.7,44.26,9.111,54.6.4q0.856-1.05,1.711-2.1c-9.151-20.59-27.867-41.9-27.867-64.968l-15.5,21.767-12.152-23.85c0,24.288-2.759,48.143-2.759,72.2q-0.175-4.518-.349-9.037" transform="translate(-44.875 -18.625)"/>
  <path class="cls-2" d="M153.51,312.16l0.369,0.208Q154.94,278.188,156,244l12.782,21.7q0.231-.272.461-0.545,6.737-11.664,13.473-23.331,1.107,35.435,2.214,70.876l-30.358-.674,0.738,0.207" transform="translate(-44.875 -18.625)"/>
  <path class="cls-1" d="M122,229q16.168-25.348,32.341-50.7c2.64,0.594,32.342,43.063,32.342,47.727-8.391-2.834-56.261-2.9-62.932.856Q122.877,227.941,122,229Z" transform="translate(-44.875 -18.625)"/>
  <path id="Shape_4_copy" data-name="Shape 4 copy" class="cls-1" d="M122,229q16.168-25.348,32.341-50.7c2.64,0.594,32.342,43.063,32.342,47.727-8.391-2.834-56.261-2.9-62.932.856Q122.877,227.941,122,229Z" transform="translate(-44.875 -18.625)"/>
  <path class="cls-3" d="M101,270c-26.667-13.055-65.4-52.6-54.114-85.24,4.716-13.644,14.089-27.66,23.438-38.177,18.876-21.232,35.706-23.953,3.045-42.328l0.369-.649c15.527-8.729,29.5-4.416,38.2,8.642q0.162,4.9.323,9.81c26.326-14.806-6.431-30.178-9.366-44.482-3.534-17.223,9.561-34.094,21.823-45.235l17.21-13.7c0,14.028-13.318,28.9-4.476,43.834,8.782,14.83,32.02,14.414,40.233,2.1l-1.431-16.921c27.762,13.67,24.961,15.648,24.961,45.339-3.252,5.486-13.547,21.98-10.289,28.21,10.669,20.4,31.07-4.641,20.624-13.443l1.984-1.506,8.3,3.608,10.8,15.7c3.618,12.211,7.474,22.43,7.474,35.269,27.14,25.441,18.733,67.875-7.613,89.043-8.468,6.8-19.691,12.068-30.681,12.068q-0.831-23.1-1.661-46.195c-4.214-15.4-16.068-28.382-27.775-40.616q-9.55-8.213-19.1-16.428c-28.45,24.01-42.068,40.586-47.891,76.612q-0.947,16.011-1.892,32.025Z" transform="translate(-44.875 -18.625)"/>
  <path class="cls-4" d="M209,246c27.878,2.46,43.894-44.883,31.849-66.249-1.389-2.464-16.939-25.17-22.284-22.164,4.758,7.138-10.46,25.674-4.337,34.283-5.525,1.865-10.2-6.969-16.748,2.232-0.047.312-.093,0.623-0.139,0.935,16,15,16.994,20.322,13.011,40.486q-1.107,6.681-2.215,13.365Q208.569,247.445,209,246Z" transform="translate(-44.875 -18.625)"/>
  <path class="cls-5" d="M99.153,262.675c-11.948-2.767-16.08-10.432-24.594-17.8-34.421-29.788-16.311-77.912,13.654-102l11.524-21.846,4.085,12.514,9.464-5.245c20.565-10.517,13.224-28.026,3.667-45.5l-3.388-13.772c0-11.755,8.5-18.511,14.458-26.9q-0.262.972-.524,1.945c-2.421,8.171,1.327,15.3,1.327,22.809,7.444,10.054,19.27,11.028,29.893,15.009q-1.99,34.908-3.981,69.821l-11.8,6.483c-26.659,17.646-37.049,43.465-42.744,72.3q-0.942,13.9-1.885,27.8" transform="translate(-44.875 -18.625)"/>
  <path class="cls-2" d="M154,222q0.4-21.123.8-42.249l28.975,40.719-29.99,1.324Z" transform="translate(-44.875 -18.625)"/>
</svg>
